<svg width="87" height="89" viewBox="0 0 87 89" fill="none" xmlns="http://www.w3.org/2000/svg">
<path d="M33.1848 0C26.6214 0 20.2055 1.94625 14.7483 5.59264C9.2911 9.23903 5.03772 14.4218 2.52604 20.4855C0.0143671 26.5492 -0.642802 33.2216 0.63764 39.6588C1.91808 46.096 5.07862 52.009 9.7196 56.6499C14.3606 61.2909 20.2735 64.4515 26.7107 65.7319C33.148 67.0123 39.8203 66.3552 45.884 63.8435C51.9478 61.3318 57.1305 57.0784 60.7769 51.6212C64.4233 46.164 66.3695 39.7481 66.3695 33.1848C66.3695 24.3836 62.8733 15.9429 56.65 9.71959C50.4266 3.49624 41.9859 0 33.1848 0V0ZM24.2249 4.37436C23.5522 5.0865 22.9274 5.84235 22.3545 6.63695L22.1885 6.86321C20.9173 8.67055 19.8404 10.607 18.9757 12.6404L18.8248 13.0024L18.674 13.4097C16.8915 12.5369 15.2203 11.4531 13.6963 10.1817C16.778 7.55528 20.3594 5.57983 24.2249 4.37436V4.37436ZM11.5242 12.2331C13.3833 13.8217 15.4421 15.1605 17.6483 16.2153L17.5276 16.5924C16.7728 18.9949 16.198 21.4504 15.808 23.9383C15.808 24.2701 15.7175 24.602 15.6723 24.9338C15.5315 25.9394 15.4158 26.945 15.3253 27.9506C15.3253 28.3277 15.3253 28.7048 15.2348 29.097C15.2348 29.9417 15.2348 30.8166 15.1443 31.6915H3.0168C3.39225 24.3867 6.41671 17.469 11.5242 12.2331V12.2331ZM3.0168 34.6932H15.084C15.084 35.568 15.084 36.4429 15.1745 37.2876C15.1745 37.6798 15.1745 38.0569 15.265 38.434C15.3555 39.4396 15.4711 40.4452 15.6119 41.4508C15.6119 41.7826 15.7024 42.1145 15.7477 42.4463C16.1579 44.9308 16.7528 47.3812 17.5276 49.7772L17.6483 50.1543C15.4416 51.2082 13.3826 52.547 11.5242 54.1364C6.42006 48.9044 3.39586 41.9927 3.0168 34.6932ZM13.5756 56.1878C15.1055 54.9213 16.7817 53.8426 18.5684 52.975C18.5684 53.1107 18.6589 53.2465 18.7192 53.3822L18.8701 53.7442C19.7348 55.7776 20.8117 57.7141 22.083 59.5214L22.2489 59.7477C22.8214 60.5425 23.4463 61.2984 24.1193 62.0103C20.2903 60.7866 16.7459 58.8067 13.6963 56.1878H13.5756ZM31.6764 63.2019C27.483 62.3723 23.8176 58.1035 21.3438 51.8286C24.6599 50.6097 28.1462 49.9175 31.6764 49.7772V63.2019ZM31.6764 46.7604C27.8144 46.8828 23.9961 47.6159 20.3634 48.9325C18.9691 44.3101 18.208 39.52 18.1008 34.6932H31.6764V46.7604ZM31.6764 31.6764H18.1008C18.1913 26.8256 18.9424 22.0097 20.3332 17.3617C23.9715 18.7063 27.8002 19.4649 31.6764 19.6092V31.6764ZM31.6764 16.5924C28.1495 16.4714 24.6632 15.7996 21.3438 14.6013C23.8025 8.34144 27.483 4.04251 31.6764 3.22797V16.5924ZM63.3527 31.6764H51.2856C51.2856 30.8015 51.2856 29.9417 51.1951 29.0819C51.1951 28.6897 51.1951 28.3126 51.1046 27.9355C51.014 26.9299 50.8984 25.9243 50.7576 24.9187C50.7576 24.5869 50.6671 24.255 50.6219 23.9232C50.2114 21.4388 49.6164 18.9884 48.842 16.5924L48.7213 16.2153C50.9275 15.1605 52.9863 13.8217 54.8454 12.2331C59.9507 17.4644 62.9751 24.3765 63.3527 31.6764V31.6764ZM52.794 10.1817C51.2644 11.4487 49.5881 12.5274 47.8012 13.3946C47.8012 13.2588 47.7107 13.1231 47.6503 12.9873L47.4995 12.6253C46.635 10.5918 45.5581 8.65528 44.2866 6.84813L44.1207 6.62187C43.5478 5.82726 42.9229 5.07141 42.2502 4.35927C46.0794 5.58259 49.6238 7.56255 52.6733 10.1817H52.794ZM34.6932 3.16764C38.8865 3.99726 42.5519 8.26603 45.0257 14.541C41.7097 15.7598 38.2233 16.452 34.6932 16.5924V3.16764ZM34.6932 19.6092C38.5551 19.4857 42.3732 18.7526 46.0062 17.4371C47.3997 22.0596 48.1608 26.8496 48.2688 31.6764H34.6932V19.6092ZM34.6932 34.6932H48.2688C48.1775 39.5439 47.4264 44.3597 46.0363 49.0079C42.3982 47.6627 38.5694 46.9041 34.6932 46.7604V34.6932ZM34.6932 63.2019V49.7772C38.2201 49.8982 41.7064 50.57 45.0257 51.7682C42.5519 58.1035 38.8865 62.3723 34.6932 63.2019ZM42.1447 61.9952C42.8177 61.2833 43.4425 60.5275 44.0151 59.7326L44.181 59.5063C45.4525 57.6992 46.5295 55.7627 47.3939 53.7292L47.5447 53.3671C47.5447 53.2314 47.6503 53.0956 47.6956 52.9599C49.4821 53.8277 51.1584 54.9063 52.6884 56.1728C49.603 58.8057 46.0163 60.7863 42.1447 61.9952ZM54.8605 54.1364C53.002 52.547 50.9431 51.2082 48.7364 50.1543L48.857 49.7772C49.6118 47.3746 50.1866 44.9192 50.5766 42.4313C50.5766 42.0994 50.6671 41.7676 50.7124 41.4357C50.8532 40.4301 50.9688 39.4245 51.0593 38.4189C51.0593 38.0418 51.0593 37.6647 51.1498 37.2725C51.1498 36.4278 51.1498 35.553 51.2403 34.6781H63.3075C62.9443 41.9768 59.9363 48.8937 54.8454 54.1364H54.8605Z" fill="white"/>
<g clip-path="url(#clip0_1_3)">
<path d="M85.5706 39C85.5123 38.9958 85.4537 38.9958 85.3954 39V39L55.0149 43.504C54.7363 43.5447 54.4823 43.6811 54.2998 43.888C54.1173 44.0949 54.0185 44.3584 54.0217 44.63V78.4096C53.0104 77.6787 51.7804 77.2836 50.5163 77.2836H45.8424C44.2929 77.2836 42.8069 77.8768 41.7112 78.9326C40.6155 79.9884 40 81.4204 40 82.9136C40 84.4067 40.6155 85.8387 41.7112 86.8945C42.8069 87.9504 44.2929 88.5435 45.8424 88.5435H50.5163C51.2835 88.5435 52.0433 88.3979 52.7521 88.1149C53.4609 87.832 54.105 87.4173 54.6475 86.8945C55.19 86.3717 55.6204 85.7511 55.914 85.068C56.2076 84.385 56.3587 83.6529 56.3587 82.9136V56.8582L84.4022 52.7033V71.6537C83.3909 70.9228 82.1608 70.5277 80.8967 70.5277H76.2228C74.6733 70.5277 73.1873 71.1209 72.0916 72.1767C70.996 73.2325 70.3804 74.6645 70.3804 76.1576C70.3804 77.6508 70.996 79.0828 72.0916 80.1386C73.1873 81.1944 74.6733 81.7876 76.2228 81.7876H80.8967C82.4462 81.7876 83.9323 81.1944 85.0279 80.1386C86.1236 79.0828 86.7391 77.6508 86.7391 76.1576V40.126C86.7391 39.8274 86.616 39.541 86.3969 39.3298C86.1777 39.1187 85.8805 39 85.5706 39V39ZM50.5163 86.2915H45.8424C44.9127 86.2915 44.0211 85.9356 43.3637 85.3021C42.7063 84.6687 42.337 83.8095 42.337 82.9136C42.337 82.0177 42.7063 81.1585 43.3637 80.525C44.0211 79.8915 44.9127 79.5356 45.8424 79.5356H50.5163C51.446 79.5356 52.3376 79.8915 52.995 80.525C53.6524 81.1585 54.0217 82.0177 54.0217 82.9136C54.0217 83.8095 53.6524 84.6687 52.995 85.3021C52.3376 85.9356 51.446 86.2915 50.5163 86.2915ZM80.8967 79.5356H76.2228C75.2931 79.5356 74.4015 79.1797 73.7441 78.5462C73.0867 77.9127 72.7174 77.0535 72.7174 76.1576C72.7174 75.2617 73.0867 74.4026 73.7441 73.7691C74.4015 73.1356 75.2931 72.7797 76.2228 72.7797H80.8967C81.8264 72.7797 82.718 73.1356 83.3754 73.7691C84.0328 74.4026 84.4022 75.2617 84.4022 76.1576C84.4022 77.0535 84.0328 77.9127 83.3754 78.5462C82.718 79.1797 81.8264 79.5356 80.8967 79.5356ZM84.4022 50.4176L56.3587 54.5837V45.5758L84.4022 41.4434V50.4176Z" fill="#F2192A"/>
</g>
<defs>
<clipPath id="clip0_1_3">
<rect width="46.7391" height="49.5435" fill="white" transform="translate(40 39)"/>
</clipPath>
</defs>
</svg>
